<?xml version="1.0" standalone="no"?>
<!DOCTYPE svg PUBLIC "-//W3C//DTD SVG 20010904//EN"
 "http://www.w3.org/TR/2001/REC-SVG-20010904/DTD/svg10.dtd">
<svg version="1.0" xmlns="http://www.w3.org/2000/svg"
 width="512.000000pt" height="512.000000pt" viewBox="0 0 512.000000 512.000000"
 preserveAspectRatio="xMidYMid meet">
<metadata>
Created by potrace 1.11, written by Peter Selinger 2001-2013
</metadata>
<g transform="translate(0.000000,512.000000) scale(0.100000,-0.100000)"
fill="#000000" stroke="none">
<path d="M1272 4837 c-78 -78 -142 -146 -142 -150 0 -4 149 -199 330 -432 182
-233 330 -427 330 -430 0 -11 -402 -525 -411 -525 -4 0 -139 170 -301 377
l-293 377 -3 -387 -2 -388 141 -180 c77 -100 142 -186 145 -193 3 -7 -61 -97
-141 -200 l-145 -186 0 -391 0 -391 297 381 c163 210 300 380 305 379 11 -4
1328 -1698 1328 -1708 0 -4 -112 -152 -250 -329 l-250 -321 313 0 312 0 93
120 c51 66 96 120 100 120 4 0 49 -54 100 -120 l93 -120 305 0 304 0 -245 314
c-135 173 -245 320 -245 326 0 17 402 530 411 524 4 -2 132 -165 285 -362 152
-196 283 -364 290 -372 12 -12 14 48 14 385 l0 400 -140 179 c-77 99 -140 180
-140 181 0 1 63 82 140 181 l140 179 0 400 c0 337 -2 397 -14 385 -7 -8 -138
-176 -290 -372 -153 -197 -281 -360 -285 -362 -6 -4 -1155 1462 -1313 1674
l-26 36 384 494 c212 272 412 530 445 573 l60 77 -304 0 -303 0 -288 -370
c-158 -203 -291 -372 -295 -375 -5 -2 -140 164 -300 370 l-292 375 -52 0 -52
0 -143 -143z m1493 -2258 c363 -468 661 -854 663 -860 4 -10 -396 -529 -408
-529 -13 0 -1325 1694 -1324 1710 0 15 394 530 404 529 3 0 302 -383 665 -850z"/>
</g>
</svg>
